<svg width="20" height="20" viewBox="0 0 20 20" fill="none" xmlns="http://www.w3.org/2000/svg">
<path d="M7.50001 14.1667V15C7.50001 15.663 7.7634 16.2989 8.23224 16.7678C8.70108 17.2366 9.33696 17.5 10 17.5C10.663 17.5 11.2989 17.2366 11.7678 16.7678C12.2366 16.2989 12.5 15.663 12.5 15V14.1667M8.33334 4.16667C8.33334 3.72464 8.50893 3.30072 8.82149 2.98816C9.13405 2.67559 9.55798 2.5 10 2.5C10.442 2.5 10.866 2.67559 11.1785 2.98816C11.4911 3.30072 11.6667 3.72464 11.6667 4.16667C12.6237 4.61919 13.4395 5.32361 14.0267 6.20442C14.6139 7.08523 14.9504 8.10923 15 9.16667C15 10.2753 15 13.3333 15.8333 14.1667H4.16667C5.00001 13.3333 5.00001 11.031 5.00001 9.16667C5.04964 8.10923 5.38609 7.08523 5.9733 6.20442C6.5605 5.32361 7.37633 4.61919 8.33334 4.16667Z" stroke="white" stroke-width="1.5" stroke-linecap="round" stroke-linejoin="round"/>
</svg>
