<svg width="10" height="12" viewBox="0 0 10 12" fill="none" xmlns="http://www.w3.org/2000/svg">
<path d="M8.37652 5.74071L5.25152 8.83571L2.12652 5.74071C1.9204 5.54013 1.75804 5.29905 1.64967 5.03264C1.5413 4.76623 1.48926 4.48027 1.49683 4.19277C1.5044 3.90526 1.57143 3.62243 1.69367 3.3621C1.81592 3.10177 1.99075 2.86957 2.20714 2.68012C2.42354 2.49067 2.67682 2.34808 2.95103 2.26133C3.22524 2.17457 3.51444 2.14554 3.80043 2.17605C4.08641 2.20655 4.36298 2.29594 4.61272 2.43859C4.86246 2.58123 5.07996 2.77404 5.25152 3.00488C5.42383 2.77572 5.64158 2.58459 5.89115 2.44346C6.14072 2.30233 6.41673 2.21423 6.70191 2.18468C6.98709 2.15512 7.27531 2.18475 7.54851 2.27171C7.82172 2.35866 8.07404 2.50107 8.28967 2.69003C8.50531 2.87898 8.67962 3.11041 8.8017 3.36983C8.92378 3.62925 8.991 3.91108 8.99915 4.19767C9.00731 4.48427 8.95622 4.76946 8.84908 5.0354C8.74194 5.30134 8.58107 5.5423 8.37652 5.74321" stroke="white" stroke-width="1.5" stroke-linecap="round" stroke-linejoin="round"/>
</svg>
