<svg width="120" height="23" viewBox="0 0 120 23" fill="none" xmlns="http://www.w3.org/2000/svg">
<path d="M7.56281 18.24C6.49081 18.24 5.44281 18.12 4.41881 17.88C3.41081 17.64 2.53081 17.28 1.77881 16.8C1.41081 16.56 1.18681 16.264 1.10681 15.912C1.02681 15.56 1.05081 15.232 1.17881 14.928C1.32281 14.608 1.53881 14.392 1.82681 14.28C2.13081 14.152 2.47481 14.208 2.85881 14.448C3.56281 14.864 4.30681 15.168 5.09081 15.36C5.87481 15.552 6.69881 15.648 7.56281 15.648C8.82681 15.648 9.74681 15.44 10.3228 15.024C10.8988 14.592 11.1868 14.04 11.1868 13.368C11.1868 12.808 10.9788 12.368 10.5628 12.048C10.1628 11.728 9.46681 11.464 8.47481 11.256L5.83481 10.704C2.82681 10.064 1.32281 8.52 1.32281 6.072C1.32281 5.016 1.60281 4.096 2.16281 3.312C2.72281 2.528 3.49881 1.92 4.49081 1.488C5.48281 1.056 6.62681 0.839999 7.92281 0.839999C8.88281 0.839999 9.79481 0.959999 10.6588 1.2C11.5228 1.44 12.2988 1.792 12.9868 2.256C13.3068 2.48 13.4988 2.76 13.5628 3.096C13.6268 3.416 13.5868 3.72 13.4428 4.008C13.2988 4.28 13.0668 4.472 12.7468 4.584C12.4428 4.68 12.0828 4.608 11.6668 4.368C11.0748 4.032 10.4748 3.792 9.86681 3.648C9.25881 3.504 8.60281 3.432 7.89881 3.432C6.79481 3.432 5.93081 3.664 5.30681 4.128C4.68281 4.592 4.37081 5.2 4.37081 5.952C4.37081 6.528 4.56281 6.992 4.94681 7.344C5.33081 7.68 5.98681 7.944 6.91481 8.136L9.53081 8.688C11.1148 9.024 12.2908 9.552 13.0588 10.272C13.8428 10.992 14.2348 11.952 14.2348 13.152C14.2348 14.16 13.9628 15.048 13.4188 15.816C12.8748 16.584 12.0988 17.184 11.0908 17.616C10.0988 18.032 8.92281 18.24 7.56281 18.24Z" fill="#FFBE0B"/>
<path d="M18.0714 3.864C17.5114 3.864 17.0714 3.728 16.7514 3.456C16.4474 3.168 16.2954 2.776 16.2954 2.28C16.2954 1.768 16.4474 1.376 16.7514 1.104C17.0714 0.831999 17.5114 0.696 18.0714 0.696C19.2554 0.696 19.8474 1.224 19.8474 2.28C19.8474 3.336 19.2554 3.864 18.0714 3.864ZM18.0714 18.168C17.5914 18.168 17.2234 18.024 16.9674 17.736C16.7114 17.448 16.5834 17.048 16.5834 16.536V7.728C16.5834 6.64 17.0794 6.096 18.0714 6.096C19.0794 6.096 19.5834 6.64 19.5834 7.728V16.536C19.5834 17.048 19.4554 17.448 19.1994 17.736C18.9434 18.024 18.5674 18.168 18.0714 18.168Z" fill="#FB5607"/>
<path d="M26.7086 18.24C24.0366 18.24 22.7006 16.744 22.7006 13.752V2.4C22.7006 1.392 23.1966 0.887999 24.1886 0.887999C25.1966 0.887999 25.7006 1.392 25.7006 2.4V13.608C25.7006 15.048 26.3006 15.768 27.5006 15.768C27.6286 15.768 27.7486 15.768 27.8606 15.768C27.9726 15.752 28.0846 15.736 28.1966 15.72C28.4206 15.688 28.5726 15.752 28.6526 15.912C28.7326 16.056 28.7726 16.36 28.7726 16.824C28.7726 17.224 28.6926 17.536 28.5326 17.76C28.3726 17.984 28.1086 18.12 27.7406 18.168C27.4046 18.216 27.0606 18.24 26.7086 18.24Z" fill="#FF006E"/>
<path d="M34.3727 18.24C31.7007 18.24 30.3647 16.744 30.3647 13.752V2.4C30.3647 1.392 30.8607 0.887999 31.8527 0.887999C32.8607 0.887999 33.3647 1.392 33.3647 2.4V13.608C33.3647 15.048 33.9647 15.768 35.1647 15.768C35.2927 15.768 35.4127 15.768 35.5247 15.768C35.6367 15.752 35.7487 15.736 35.8607 15.72C36.0847 15.688 36.2367 15.752 36.3167 15.912C36.3967 16.056 36.4367 16.36 36.4367 16.824C36.4367 17.224 36.3567 17.536 36.1967 17.76C36.0367 17.984 35.7727 18.12 35.4047 18.168C35.0687 18.216 34.7247 18.24 34.3727 18.24Z" fill="#9747FF"/>
<path d="M41.0048 22.512C40.4608 22.512 40.0848 22.312 39.8768 21.912C39.6688 21.512 39.6768 21.056 39.9008 20.544L41.2688 17.52L37.1648 8.064C36.9408 7.536 36.9408 7.072 37.1648 6.672C37.3888 6.272 37.8288 6.072 38.4848 6.072C38.8528 6.072 39.1488 6.16 39.3728 6.336C39.5968 6.496 39.7968 6.808 39.9728 7.272L42.8528 14.472L45.8048 7.248C45.9808 6.8 46.1888 6.496 46.4288 6.336C46.6688 6.16 46.9888 6.072 47.3888 6.072C47.9008 6.072 48.2608 6.272 48.4688 6.672C48.6768 7.072 48.6688 7.528 48.4448 8.04L42.6128 21.36C42.4048 21.808 42.1808 22.112 41.9408 22.272C41.7008 22.432 41.3888 22.512 41.0048 22.512Z" fill="#3A86FF"/>
<path d="M52.4856 18.192C51.4616 18.192 50.9496 17.664 50.9496 16.608V2.472C50.9496 1.416 51.4616 0.887999 52.4856 0.887999C53.5096 0.887999 54.0216 1.416 54.0216 2.472V8.136H62.7336V2.472C62.7336 1.416 63.2456 0.887999 64.2696 0.887999C65.2936 0.887999 65.8056 1.416 65.8056 2.472V16.608C65.8056 17.664 65.2936 18.192 64.2696 18.192C63.2456 18.192 62.7336 17.664 62.7336 16.608V10.704H54.0216V16.608C54.0216 17.664 53.5096 18.192 52.4856 18.192ZM74.5761 18.24C73.3601 18.24 72.3041 17.992 71.4081 17.496C70.5121 17 69.8161 16.296 69.3201 15.384C68.8241 14.456 68.5761 13.368 68.5761 12.12C68.5761 10.872 68.8241 9.792 69.3201 8.88C69.8161 7.968 70.5121 7.264 71.4081 6.768C72.3041 6.272 73.3601 6.024 74.5761 6.024C75.7921 6.024 76.8481 6.272 77.7441 6.768C78.6401 7.264 79.3361 7.968 79.8321 8.88C80.3281 9.792 80.5761 10.872 80.5761 12.12C80.5761 13.368 80.3281 14.456 79.8321 15.384C79.3361 16.296 78.6401 17 77.7441 17.496C76.8481 17.992 75.7921 18.24 74.5761 18.24ZM74.5761 15.96C75.4721 15.96 76.1921 15.64 76.7361 15C77.2801 14.344 77.5521 13.384 77.5521 12.12C77.5521 10.84 77.2801 9.888 76.7361 9.264C76.1921 8.624 75.4721 8.304 74.5761 8.304C73.6801 8.304 72.9601 8.624 72.4161 9.264C71.8721 9.888 71.6001 10.84 71.6001 12.12C71.6001 13.384 71.8721 14.344 72.4161 15C72.9601 15.64 73.6801 15.96 74.5761 15.96ZM87.3002 18.24C84.4202 18.24 82.9802 16.624 82.9802 13.392V7.584C82.9802 6.576 83.4762 6.072 84.4682 6.072C85.4762 6.072 85.9802 6.576 85.9802 7.584V13.44C85.9802 14.272 86.1482 14.888 86.4842 15.288C86.8202 15.688 87.3562 15.888 88.0922 15.888C88.8922 15.888 89.5482 15.616 90.0602 15.072C90.5722 14.512 90.8282 13.776 90.8282 12.864V7.584C90.8282 6.576 91.3242 6.072 92.3162 6.072C93.3242 6.072 93.8282 6.576 93.8282 7.584V16.656C93.8282 17.68 93.3402 18.192 92.3642 18.192C91.3882 18.192 90.9002 17.68 90.9002 16.656V16.248C90.1162 17.576 88.9162 18.24 87.3002 18.24ZM101.247 18.24C100.559 18.24 99.8306 18.168 99.0626 18.024C98.2946 17.88 97.6066 17.632 96.9986 17.28C96.6626 17.088 96.4546 16.856 96.3746 16.584C96.2946 16.296 96.3026 16.032 96.3986 15.792C96.5106 15.536 96.6866 15.352 96.9266 15.24C97.1826 15.128 97.4786 15.152 97.8146 15.312C98.4546 15.616 99.0546 15.832 99.6146 15.96C100.175 16.072 100.727 16.128 101.271 16.128C102.039 16.128 102.607 16 102.975 15.744C103.359 15.472 103.551 15.12 103.551 14.688C103.551 14.016 103.055 13.584 102.063 13.392L99.6626 12.936C97.6306 12.552 96.6146 11.496 96.6146 9.768C96.6146 9 96.8226 8.336 97.2386 7.776C97.6706 7.216 98.2626 6.784 99.0146 6.48C99.7666 6.176 100.631 6.024 101.607 6.024C103.015 6.024 104.271 6.336 105.375 6.96C105.679 7.12 105.855 7.344 105.903 7.632C105.967 7.904 105.935 8.168 105.807 8.424C105.695 8.664 105.511 8.84 105.255 8.952C104.999 9.048 104.703 9.016 104.367 8.856C103.871 8.6 103.391 8.416 102.927 8.304C102.479 8.192 102.047 8.136 101.631 8.136C100.847 8.136 100.263 8.272 99.8786 8.544C99.5106 8.816 99.3266 9.176 99.3266 9.624C99.3266 10.328 99.7826 10.76 100.695 10.92L103.095 11.376C104.135 11.568 104.919 11.92 105.447 12.432C105.991 12.944 106.263 13.632 106.263 14.496C106.263 15.664 105.807 16.584 104.895 17.256C103.983 17.912 102.767 18.24 101.247 18.24ZM114.453 18.24C113.125 18.24 111.981 17.992 111.021 17.496C110.061 17 109.317 16.296 108.789 15.384C108.277 14.472 108.021 13.392 108.021 12.144C108.021 10.928 108.269 9.864 108.765 8.952C109.277 8.04 109.973 7.328 110.853 6.816C111.749 6.288 112.765 6.024 113.901 6.024C115.565 6.024 116.877 6.552 117.837 7.608C118.813 8.664 119.301 10.104 119.301 11.928C119.301 12.52 118.917 12.816 118.149 12.816H110.901C111.125 14.912 112.325 15.96 114.501 15.96C114.917 15.96 115.381 15.912 115.893 15.816C116.421 15.704 116.917 15.52 117.381 15.264C117.797 15.024 118.149 14.952 118.437 15.048C118.725 15.128 118.925 15.296 119.037 15.552C119.165 15.808 119.181 16.096 119.085 16.416C119.005 16.72 118.781 16.984 118.413 17.208C117.853 17.56 117.205 17.824 116.469 18C115.749 18.16 115.077 18.24 114.453 18.24ZM114.021 8.064C113.141 8.064 112.429 8.336 111.885 8.88C111.341 9.424 111.013 10.16 110.901 11.088H116.805C116.741 10.112 116.469 9.368 115.989 8.856C115.525 8.328 114.869 8.064 114.021 8.064Z" fill="#355070"/>
</svg>
