<svg width="20" height="20" viewBox="0 0 20 20" fill="none" xmlns="http://www.w3.org/2000/svg">
<path d="M3.33331 6.66667V5C3.33331 4.55798 3.50891 4.13405 3.82147 3.82149C4.13403 3.50893 4.55795 3.33334 4.99998 3.33334H6.66665M3.33331 13.3333V15C3.33331 15.442 3.50891 15.866 3.82147 16.1785C4.13403 16.4911 4.55795 16.6667 4.99998 16.6667H6.66665M13.3333 3.33334H15C15.442 3.33334 15.8659 3.50893 16.1785 3.82149C16.4911 4.13405 16.6666 4.55798 16.6666 5V6.66667M13.3333 16.6667H15C15.442 16.6667 15.8659 16.4911 16.1785 16.1785C16.4911 15.866 16.6666 15.442 16.6666 15V13.3333M12.5 10C12.5 11.3807 11.3807 12.5 9.99998 12.5C8.61927 12.5 7.49998 11.3807 7.49998 10C7.49998 8.61929 8.61927 7.5 9.99998 7.5C11.3807 7.5 12.5 8.61929 12.5 10Z" stroke="#355070" stroke-width="1.5" stroke-linecap="round" stroke-linejoin="round"/>
</svg>
