<svg width="20" height="20" viewBox="0 0 20 20" fill="none" xmlns="http://www.w3.org/2000/svg">
<path d="M13.3333 12.5C11.4917 13.6108 8.50667 13.6108 6.66667 12.5M15.8333 7.25814L11.3892 3.80148C10.9992 3.49807 10.5191 3.33334 10.025 3.33334C9.53087 3.33334 9.05085 3.49807 8.66084 3.80148L4.21584 7.25814C3.94871 7.46588 3.73258 7.73192 3.58397 8.03593C3.43535 8.33995 3.35818 8.67391 3.35834 9.01231V15.0123C3.35834 15.4543 3.53393 15.8783 3.84649 16.1908C4.15905 16.5034 4.58298 16.679 5.025 16.679H15.025C15.467 16.679 15.891 16.5034 16.2035 16.1908C16.5161 15.8783 16.6917 15.4543 16.6917 15.0123V9.01231C16.6917 8.32648 16.375 7.67898 15.8333 7.25814Z" stroke="#355070" stroke-width="1.5" stroke-linecap="round" stroke-linejoin="round"/>
</svg>
